<svg xmlns="http://www.w3.org/2000/svg" width="71" height="71" viewBox="0 0 71 71" fill="none">
  <path d="M13.7562 3.10625C13.9629 2.83069 14.2309 2.60703 14.539 2.45299C14.8471 2.29895 15.1868 2.21875 15.5312 2.21875H55.4688C55.8132 2.21875 56.1529 2.29895 56.461 2.45299C56.7691 2.60703 57.0371 2.83069 57.2437 3.10625L70.4498 20.7409C71.1109 21.5618 71.142 22.7377 70.4941 23.5986L37.275 67.8938C37.0683 68.1693 36.8003 68.393 36.4923 68.547C36.1842 68.701 35.8445 68.7812 35.5 68.7812C35.1555 68.7812 34.8158 68.701 34.5077 68.547C34.1997 68.393 33.9317 68.1693 33.725 67.8938L0.44375 23.5188C0.155707 23.1347 0 22.6676 0 22.1875C0 21.7074 0.155707 21.2403 0.44375 20.8562L13.7562 3.10625ZM64.2816 19.9022L56.2675 9.20781L52.824 19.9155L64.2816 19.9022ZM48.1602 19.9199L52.4246 6.65625H18.5754L22.8487 19.9466L48.1602 19.9199ZM24.2731 24.3841L35.5 59.3116L46.7357 24.3619L24.2731 24.3841ZM18.1893 19.951L14.7281 9.20337L6.66069 19.9643L18.1893 19.951ZM6.65181 24.4062L29.3407 54.6567L19.6138 24.3929L6.65625 24.4062H6.65181ZM41.6592 54.6567L64.3926 24.3486L51.3996 24.3574L41.6592 54.6567Z" fill="currentColor"/>
</svg>